<svg width="676" height="101" viewBox="0 0 676 101" fill="none" xmlns="http://www.w3.org/2000/svg">
<path d="M166.95 99.4583H156.117V87H126.108V99.4583H115.275V77.4667H118.85C120.005 75.1556 120.944 72.4111 121.667 69.2333C122.389 65.9833 122.967 62.5528 123.4 58.9417C123.833 55.3306 124.122 51.6472 124.267 47.8917C124.411 44.1361 124.483 40.5611 124.483 37.1667V32.5083H161.208V77.4667H166.95V99.4583ZM42.9083 21.8917H37.0583C31.6416 21.8917 27.561 23.1194 24.8166 25.575C22.0721 28.0306 20.6999 31.2806 20.6999 35.325C20.6999 37.6361 20.9527 39.6583 21.4583 41.3917C21.9638 43.0528 22.686 44.6056 23.6249 46.05C24.636 47.4944 25.8638 48.8667 27.3083 50.1667C28.8249 51.3944 30.5944 52.6944 32.6166 54.0667L39.2249 58.5083L20.1583 87H5.96659L23.0833 61.5417C20.6277 59.8083 18.4249 58.0389 16.4749 56.2333C14.5971 54.4278 13.0083 52.5139 11.7083 50.4917C10.4083 48.4694 9.39714 46.3028 8.67492 43.9917C8.02492 41.6083 7.69992 38.9722 7.69992 36.0833C7.69992 32.4722 8.31381 29.1861 9.54158 26.225C10.8416 23.1917 12.7194 20.6278 15.1749 18.5333C17.6305 16.3667 20.6638 14.7056 24.2749 13.55C27.9583 12.3222 32.1833 11.7083 36.9499 11.7083H56.0166V87H42.9083V21.8917ZM183.417 64.0333C183.633 68.9444 184.789 72.5917 186.883 74.975C188.978 77.3583 192.517 78.55 197.5 78.55C200.533 78.55 203.53 78.0444 206.492 77.0333C209.525 75.95 212.017 74.7583 213.967 73.4583V83.3167C212.089 84.6167 209.705 85.7361 206.817 86.675C203.928 87.6139 200.461 88.0833 196.417 88.0833C188.328 88.0833 182.08 85.7722 177.675 81.15C173.342 76.5278 171.175 69.45 171.175 59.9167C171.175 55.8 171.608 52.0083 172.475 48.5417C173.414 45.075 174.822 42.0778 176.7 39.55C178.578 36.95 180.925 34.9639 183.742 33.5917C186.63 32.1472 189.989 31.425 193.817 31.425C196.922 31.425 199.739 31.8944 202.267 32.8333C204.867 33.7722 207.069 35.2889 208.875 37.3833C210.68 39.4778 212.053 42.1861 212.992 45.5083C214.003 48.7583 214.508 52.7667 214.508 57.5333V64.0333H183.417ZM108.775 32.5083V87H96.9666V63.925H78.6583V87H66.8499V32.5083H78.6583V54.3917H96.9666V32.5083H108.775ZM236.067 59.5917V87H224.258V32.5083H236.067V58.8333L255.133 32.5083H267.483L248.958 58.075L269.867 87H256L236.067 59.5917ZM295.108 88.0833C286.586 88.0833 280.267 85.6639 276.15 80.825C272.105 75.9861 270.083 68.9806 270.083 59.8083C270.083 55.6917 270.589 51.9 271.6 48.4333C272.683 44.8944 274.236 41.8972 276.258 39.4417C278.353 36.9139 280.917 34.9639 283.95 33.5917C286.983 32.1472 290.522 31.425 294.567 31.425C297.672 31.425 300.344 31.6778 302.583 32.1833C304.822 32.6167 306.592 33.2306 307.892 34.025V44.425C306.664 43.6306 304.967 42.8722 302.8 42.15C300.633 41.4278 298.358 41.0667 295.975 41.0667C291.569 41.0667 288.175 42.6194 285.792 45.725C283.48 48.7583 282.325 53.3444 282.325 59.4833C282.325 65.3333 283.372 69.9556 285.467 73.35C287.561 76.7444 291.028 78.4417 295.867 78.4417C298.467 78.4417 300.705 78.1167 302.583 77.4667C304.533 76.7444 306.303 75.8417 307.892 74.7583V84.725C306.375 85.8083 304.569 86.6389 302.475 87.2167C300.453 87.7944 297.997 88.0833 295.108 88.0833ZM149.4 42.0417H134.883V44.3167C134.883 46.7 134.811 49.3722 134.667 52.3333C134.522 55.2944 134.269 58.2917 133.908 61.325C133.547 64.3583 133.042 67.2833 132.392 70.1C131.814 72.9167 131.055 75.3722 130.117 77.4667H149.4V42.0417ZM193.6 40.9583C190.278 40.9583 187.786 42.1861 186.125 44.6417C184.464 47.025 183.561 50.5278 183.417 55.15H202.483V53.7417C202.483 51.9361 202.339 50.275 202.05 48.7583C201.761 47.1694 201.255 45.7972 200.533 44.6417C199.883 43.4861 198.98 42.5833 197.825 41.9333C196.742 41.2833 195.333 40.9583 193.6 40.9583Z" fill="black"/>
<circle cx="384" cy="50" r="50" fill="#89A7FF"/>
<mask id="mask0_8544_92751" style="mask-type:alpha" maskUnits="userSpaceOnUse" x="358" y="40" width="58" height="37">
<path d="M405.317 40.635C410.781 40.635 415.209 45.0638 415.209 50.5269C415.209 52.166 414.802 53.7795 414.024 55.2221L402.662 76.2913C402.662 76.2913 403.923 71.4654 403.923 71.1727C403.786 65.8151 399.401 61.5142 394.01 61.5142H361.884C359.163 61.5142 357.43 58.6072 358.724 56.2134L366.547 41.7348C366.913 41.0573 367.622 40.635 368.392 40.635H405.317Z" fill="#123CA9"/>
</mask>
<g mask="url(#mask0_8544_92751)">
<path d="M405.317 40.635C410.781 40.635 415.209 45.0638 415.209 50.5269C415.209 52.166 414.802 53.7795 414.024 55.2221L402.662 76.2913C402.662 76.2913 403.923 71.4654 403.923 71.1727C403.786 65.8151 399.401 61.5142 394.01 61.5142H361.884C359.163 61.5142 357.43 58.6072 358.724 56.2134L366.547 41.7348C366.913 41.0573 367.622 40.635 368.392 40.635H405.317Z" fill="#123CA9"/>
<g filter="url(#filter0_f_8544_92751)">
<path d="M347.312 38.0188C347.806 36.766 349.016 35.9426 350.362 35.9426H404.677C407.228 35.9426 408.802 38.728 407.486 40.9136L391.784 66.9884C391.19 67.9736 390.124 68.576 388.974 68.576H340.079C337.766 68.576 336.18 66.2455 337.029 64.0936L347.312 38.0188Z" fill="#092F90"/>
</g>
</g>
<path d="M401.9 17.198C407.265 17.198 411.613 21.5467 411.613 26.911C411.613 28.5769 411.185 30.2149 410.369 31.6674L398.517 52.7702C398.517 52.7702 399.551 47.6919 399.551 47.4024C399.405 42.1033 394.718 37.8493 388.956 37.8493H361.978C359.205 37.8493 357.477 34.8401 358.876 32.4449L366.392 19.5729C367.25 18.1022 368.825 17.198 370.528 17.198H401.9Z" fill="#123CA9"/>
<path d="M367.142 61.5137H394.011C399.487 61.5137 403.927 65.9534 403.927 71.43C403.927 76.9067 399.487 81.3464 394.011 81.3464H362.037C359.281 81.3464 357.551 78.3722 358.914 75.977L367.142 61.5137Z" fill="white"/>
<path d="M367.8 37.8118H389.893C395.396 37.8118 399.857 42.2725 399.857 47.7752C399.857 53.2778 395.396 57.7386 389.893 57.7386H362.055C359.252 57.7386 357.528 54.6706 358.987 52.2764L367.8 37.8118Z" fill="white"/>
<path d="M483.4 11.7083C491.778 11.7083 498.133 13.225 502.467 16.2583C506.872 19.2917 509.075 24.0944 509.075 30.6667C509.075 35.7944 507.883 39.6944 505.5 42.3667C503.117 45.0389 499.867 46.8806 495.75 47.8917C500.878 48.8306 504.742 50.7444 507.342 53.6333C510.014 56.45 511.35 60.35 511.35 65.3333C511.35 72.7722 508.822 78.2611 503.767 81.8C498.711 85.2667 491.742 87 482.858 87H461.083V11.7083H483.4ZM483.833 76.8167C488.239 76.8167 491.705 75.9139 494.233 74.1083C496.761 72.2306 498.025 69.0528 498.025 64.575C498.025 60.3861 496.869 57.425 494.558 55.6917C492.319 53.9583 488.708 53.0917 483.725 53.0917H474.192V76.8167H483.833ZM483.508 43.3417C487.408 43.3417 490.478 42.5111 492.717 40.85C494.955 39.1167 496.075 36.2278 496.075 32.1833C496.075 28.3556 495.028 25.6833 492.933 24.1667C490.839 22.65 487.733 21.8917 483.617 21.8917H474.192V43.3417H483.508ZM531.94 32.5083V66.3083L551.657 32.5083H563.14V87H550.682V53.3083L530.965 87H519.482V32.5083H531.94ZM586.857 60.675V87H573.966V32.5083H586.857V58.075L605.057 32.5083H618.057L599.857 58.075L620.549 87H605.924L586.857 60.675ZM639.004 32.5083V66.3083L658.72 32.5083H670.204V87H657.745V53.3083L638.029 87H626.545V32.5083H639.004Z" fill="black"/>
<defs>
<filter id="filter0_f_8544_92751" x="330.894" y="30.0399" width="82.9697" height="44.4387" filterUnits="userSpaceOnUse" color-interpolation-filters="sRGB">
<feFlood flood-opacity="0" result="BackgroundImageFix"/>
<feBlend mode="normal" in="SourceGraphic" in2="BackgroundImageFix" result="shape"/>
<feGaussianBlur stdDeviation="2.95135" result="effect1_foregroundBlur_8544_92751"/>
</filter>
</defs>
</svg>
